<svg width="59" height="59" viewBox="0 0 59 59" fill="none" xmlns="http://www.w3.org/2000/svg">
<circle cx="29.5" cy="29.5" r="29.5" fill="#FC5C3A"/>
<path d="M18.2245 39.3668V36.5479H21.0434V26.6818C21.0434 24.7321 21.6306 23.0055 22.8052 21.5021C23.9797 19.9752 25.5066 18.9768 27.3859 18.507V17.5204C27.3859 16.9331 27.5855 16.4398 27.9849 16.0405C28.4077 15.6177 28.9128 15.4062 29.5 15.4062C30.0873 15.4062 30.5806 15.6177 30.98 16.0405C31.4028 16.4398 31.6142 16.9331 31.6142 17.5204V18.507C33.4935 18.9768 35.0204 19.9752 36.1949 21.5021C37.3694 23.0055 37.9567 24.7321 37.9567 26.6818V36.5479H40.7756V39.3668H18.2245ZM29.5 43.5951C28.7248 43.5951 28.0554 43.325 27.4916 42.7847C26.9513 42.2209 26.6812 41.5514 26.6812 40.7763H32.3189C32.3189 41.5514 32.037 42.2209 31.4733 42.7847C30.933 43.325 30.2752 43.5951 29.5 43.5951ZM23.8623 36.5479H35.1378V26.6818C35.1378 25.1314 34.5858 23.8042 33.4817 22.7001C32.3777 21.5961 31.0504 21.044 29.5 21.044C27.9497 21.044 26.6224 21.5961 25.5184 22.7001C24.4143 23.8042 23.8623 25.1314 23.8623 26.6818V36.5479Z" fill="white"/>
</svg>
